<mxfile host="app.diagrams.net" modified="2023-09-07T13:54:30.479Z" agent="Mozilla/5.0 (Windows NT 10.0; Win64; x64; rv:109.0) Gecko/20100101 Firefox/117.0" etag="GDyLrCvN3kWmz3b3Rmk3" version="21.7.2" type="device">
  <diagram name="Page-1" id="13e1069c-82ec-6db2-03f1-153e76fe0fe0">
    <mxGraphModel dx="472" dy="821" grid="1" gridSize="10" guides="1" tooltips="1" connect="1" arrows="1" fold="1" page="1" pageScale="1" pageWidth="1100" pageHeight="850" background="none" math="0" shadow="0">
      <root>
        <mxCell id="0" />
        <mxCell id="1" parent="0" />
        <mxCell id="7baba1c4bc27f4b0-2" value=":DAL" style="shape=umlLifeline;perimeter=lifelinePerimeter;whiteSpace=wrap;html=1;container=1;collapsible=0;recursiveResize=0;outlineConnect=0;rounded=1;shadow=0;comic=0;labelBackgroundColor=none;strokeWidth=1;fontFamily=Verdana;fontSize=12;align=center;" parent="1" vertex="1">
          <mxGeometry x="415" y="111" width="100" height="709" as="geometry" />
        </mxCell>
        <mxCell id="_VtA3e9hZ6MFnu51Yufp-31" value="" style="html=1;points=[];perimeter=orthogonalPerimeter;outlineConnect=0;targetShapes=umlLifeline;portConstraint=eastwest;newEdgeStyle={&quot;edgeStyle&quot;:&quot;elbowEdgeStyle&quot;,&quot;elbow&quot;:&quot;vertical&quot;,&quot;curved&quot;:0,&quot;rounded&quot;:0};" parent="7baba1c4bc27f4b0-2" vertex="1">
          <mxGeometry x="45" y="307" width="10" height="30" as="geometry" />
        </mxCell>
        <mxCell id="_VtA3e9hZ6MFnu51Yufp-70" value="" style="html=1;points=[];perimeter=orthogonalPerimeter;outlineConnect=0;targetShapes=umlLifeline;portConstraint=eastwest;newEdgeStyle={&quot;edgeStyle&quot;:&quot;elbowEdgeStyle&quot;,&quot;elbow&quot;:&quot;vertical&quot;,&quot;curved&quot;:0,&quot;rounded&quot;:0};" parent="7baba1c4bc27f4b0-2" vertex="1">
          <mxGeometry x="45" y="401" width="10" height="30" as="geometry" />
        </mxCell>
        <mxCell id="_VtA3e9hZ6MFnu51Yufp-71" value="" style="endArrow=block;endFill=1;endSize=12;html=1;rounded=0;exitX=0.9;exitY=0.007;exitDx=0;exitDy=0;exitPerimeter=0;" parent="7baba1c4bc27f4b0-2" edge="1">
          <mxGeometry width="160" relative="1" as="geometry">
            <mxPoint x="-80" y="418" as="sourcePoint" />
            <mxPoint x="45" y="418" as="targetPoint" />
          </mxGeometry>
        </mxCell>
        <mxCell id="_VtA3e9hZ6MFnu51Yufp-72" value="SetAtribuicao()" style="edgeLabel;html=1;align=center;verticalAlign=middle;resizable=0;points=[];" parent="_VtA3e9hZ6MFnu51Yufp-71" vertex="1" connectable="0">
          <mxGeometry x="-0.15" relative="1" as="geometry">
            <mxPoint as="offset" />
          </mxGeometry>
        </mxCell>
        <mxCell id="_VtA3e9hZ6MFnu51Yufp-73" value="" style="endArrow=block;endFill=1;endSize=12;html=1;rounded=0;" parent="7baba1c4bc27f4b0-2" edge="1">
          <mxGeometry width="160" relative="1" as="geometry">
            <mxPoint x="55" y="412" as="sourcePoint" />
            <mxPoint x="205" y="412" as="targetPoint" />
          </mxGeometry>
        </mxCell>
        <mxCell id="_VtA3e9hZ6MFnu51Yufp-74" value="InsertAtribuicoes()" style="edgeLabel;html=1;align=center;verticalAlign=middle;resizable=0;points=[];" parent="_VtA3e9hZ6MFnu51Yufp-73" vertex="1" connectable="0">
          <mxGeometry x="-0.15" relative="1" as="geometry">
            <mxPoint as="offset" />
          </mxGeometry>
        </mxCell>
        <mxCell id="7baba1c4bc27f4b0-3" value=":DB" style="shape=umlLifeline;perimeter=lifelinePerimeter;whiteSpace=wrap;html=1;container=1;collapsible=0;recursiveResize=0;outlineConnect=0;rounded=1;shadow=0;comic=0;labelBackgroundColor=none;strokeWidth=1;fontFamily=Verdana;fontSize=12;align=center;" parent="1" vertex="1">
          <mxGeometry x="575" y="111" width="100" height="709" as="geometry" />
        </mxCell>
        <mxCell id="_VtA3e9hZ6MFnu51Yufp-34" value="" style="html=1;points=[];perimeter=orthogonalPerimeter;outlineConnect=0;targetShapes=umlLifeline;portConstraint=eastwest;newEdgeStyle={&quot;edgeStyle&quot;:&quot;elbowEdgeStyle&quot;,&quot;elbow&quot;:&quot;vertical&quot;,&quot;curved&quot;:0,&quot;rounded&quot;:0};" parent="7baba1c4bc27f4b0-3" vertex="1">
          <mxGeometry x="45" y="307" width="10" height="30" as="geometry" />
        </mxCell>
        <mxCell id="_VtA3e9hZ6MFnu51Yufp-75" value="" style="html=1;points=[];perimeter=orthogonalPerimeter;outlineConnect=0;targetShapes=umlLifeline;portConstraint=eastwest;newEdgeStyle={&quot;edgeStyle&quot;:&quot;elbowEdgeStyle&quot;,&quot;elbow&quot;:&quot;vertical&quot;,&quot;curved&quot;:0,&quot;rounded&quot;:0};" parent="7baba1c4bc27f4b0-3" vertex="1">
          <mxGeometry x="45" y="400" width="10" height="30" as="geometry" />
        </mxCell>
        <mxCell id="7baba1c4bc27f4b0-8" value=":Agenda" style="shape=umlLifeline;perimeter=lifelinePerimeter;whiteSpace=wrap;html=1;container=1;collapsible=0;recursiveResize=0;outlineConnect=0;rounded=1;shadow=0;comic=0;labelBackgroundColor=none;strokeWidth=1;fontFamily=Verdana;fontSize=12;align=center;movable=1;resizable=1;rotatable=1;deletable=1;editable=1;locked=0;connectable=1;" parent="1" vertex="1">
          <mxGeometry x="275" y="111" width="100" height="709" as="geometry" />
        </mxCell>
        <mxCell id="_VtA3e9hZ6MFnu51Yufp-6" value="" style="html=1;points=[];perimeter=orthogonalPerimeter;outlineConnect=0;targetShapes=umlLifeline;portConstraint=eastwest;newEdgeStyle={&quot;edgeStyle&quot;:&quot;elbowEdgeStyle&quot;,&quot;elbow&quot;:&quot;vertical&quot;,&quot;curved&quot;:0,&quot;rounded&quot;:0};" parent="7baba1c4bc27f4b0-8" vertex="1">
          <mxGeometry x="45" y="190" width="10" height="140" as="geometry" />
        </mxCell>
        <mxCell id="_VtA3e9hZ6MFnu51Yufp-19" value="" style="html=1;points=[];perimeter=orthogonalPerimeter;outlineConnect=0;targetShapes=umlLifeline;portConstraint=eastwest;newEdgeStyle={&quot;edgeStyle&quot;:&quot;elbowEdgeStyle&quot;,&quot;elbow&quot;:&quot;vertical&quot;,&quot;curved&quot;:0,&quot;rounded&quot;:0};" parent="7baba1c4bc27f4b0-8" vertex="1">
          <mxGeometry x="50" y="215" width="10" height="40" as="geometry" />
        </mxCell>
        <mxCell id="_VtA3e9hZ6MFnu51Yufp-20" value="NewAtribuicao()" style="html=1;align=left;spacingLeft=2;endArrow=block;rounded=0;edgeStyle=orthogonalEdgeStyle;curved=0;rounded=0;" parent="7baba1c4bc27f4b0-8" target="_VtA3e9hZ6MFnu51Yufp-19" edge="1">
          <mxGeometry relative="1" as="geometry">
            <mxPoint x="55" y="195" as="sourcePoint" />
            <Array as="points">
              <mxPoint x="85" y="225" />
            </Array>
          </mxGeometry>
        </mxCell>
        <mxCell id="_VtA3e9hZ6MFnu51Yufp-50" value="" style="html=1;points=[];perimeter=orthogonalPerimeter;outlineConnect=0;targetShapes=umlLifeline;portConstraint=eastwest;newEdgeStyle={&quot;edgeStyle&quot;:&quot;elbowEdgeStyle&quot;,&quot;elbow&quot;:&quot;vertical&quot;,&quot;curved&quot;:0,&quot;rounded&quot;:0};" parent="7baba1c4bc27f4b0-8" vertex="1">
          <mxGeometry x="45" y="110" width="10" height="50" as="geometry" />
        </mxCell>
        <mxCell id="_VtA3e9hZ6MFnu51Yufp-51" value="" style="html=1;points=[];perimeter=orthogonalPerimeter;outlineConnect=0;targetShapes=umlLifeline;portConstraint=eastwest;newEdgeStyle={&quot;edgeStyle&quot;:&quot;elbowEdgeStyle&quot;,&quot;elbow&quot;:&quot;vertical&quot;,&quot;curved&quot;:0,&quot;rounded&quot;:0};" parent="7baba1c4bc27f4b0-8" vertex="1">
          <mxGeometry x="45" y="351" width="10" height="80" as="geometry" />
        </mxCell>
        <mxCell id="_VtA3e9hZ6MFnu51Yufp-56" value="" style="html=1;points=[];perimeter=orthogonalPerimeter;outlineConnect=0;targetShapes=umlLifeline;portConstraint=eastwest;newEdgeStyle={&quot;edgeStyle&quot;:&quot;elbowEdgeStyle&quot;,&quot;elbow&quot;:&quot;vertical&quot;,&quot;curved&quot;:0,&quot;rounded&quot;:0};" parent="7baba1c4bc27f4b0-8" vertex="1">
          <mxGeometry x="50" y="381" width="10" height="40" as="geometry" />
        </mxCell>
        <mxCell id="_VtA3e9hZ6MFnu51Yufp-57" value="self call" style="html=1;align=left;spacingLeft=2;endArrow=block;rounded=0;edgeStyle=orthogonalEdgeStyle;curved=0;rounded=0;" parent="7baba1c4bc27f4b0-8" target="_VtA3e9hZ6MFnu51Yufp-56" edge="1">
          <mxGeometry relative="1" as="geometry">
            <mxPoint x="55" y="361" as="sourcePoint" />
            <Array as="points">
              <mxPoint x="85" y="391" />
            </Array>
          </mxGeometry>
        </mxCell>
        <mxCell id="_VtA3e9hZ6MFnu51Yufp-58" value="" style="html=1;points=[];perimeter=orthogonalPerimeter;outlineConnect=0;targetShapes=umlLifeline;portConstraint=eastwest;newEdgeStyle={&quot;edgeStyle&quot;:&quot;elbowEdgeStyle&quot;,&quot;elbow&quot;:&quot;vertical&quot;,&quot;curved&quot;:0,&quot;rounded&quot;:0};" parent="7baba1c4bc27f4b0-8" vertex="1">
          <mxGeometry x="50" y="381" width="10" height="40" as="geometry" />
        </mxCell>
        <mxCell id="_VtA3e9hZ6MFnu51Yufp-59" value="SaveAtribuicaoLocal()" style="html=1;align=left;spacingLeft=2;endArrow=block;rounded=0;edgeStyle=orthogonalEdgeStyle;curved=0;rounded=0;" parent="7baba1c4bc27f4b0-8" target="_VtA3e9hZ6MFnu51Yufp-58" edge="1">
          <mxGeometry relative="1" as="geometry">
            <mxPoint x="55" y="361" as="sourcePoint" />
            <Array as="points">
              <mxPoint x="85" y="391" />
            </Array>
          </mxGeometry>
        </mxCell>
        <mxCell id="_VtA3e9hZ6MFnu51Yufp-66" value="" style="html=1;points=[];perimeter=orthogonalPerimeter;outlineConnect=0;targetShapes=umlLifeline;portConstraint=eastwest;newEdgeStyle={&quot;edgeStyle&quot;:&quot;elbowEdgeStyle&quot;,&quot;elbow&quot;:&quot;vertical&quot;,&quot;curved&quot;:0,&quot;rounded&quot;:0};" parent="7baba1c4bc27f4b0-8" vertex="1">
          <mxGeometry x="50" y="270" width="10" height="60" as="geometry" />
        </mxCell>
        <mxCell id="_VtA3e9hZ6MFnu51Yufp-67" value="SaveAtribuicaoLocal()" style="html=1;align=left;spacingLeft=2;endArrow=block;rounded=0;edgeStyle=orthogonalEdgeStyle;curved=0;rounded=0;" parent="7baba1c4bc27f4b0-8" target="_VtA3e9hZ6MFnu51Yufp-66" edge="1">
          <mxGeometry relative="1" as="geometry">
            <mxPoint x="60" y="250" as="sourcePoint" />
            <Array as="points">
              <mxPoint x="90" y="280" />
            </Array>
          </mxGeometry>
        </mxCell>
        <mxCell id="_VtA3e9hZ6MFnu51Yufp-80" value="" style="html=1;points=[];perimeter=orthogonalPerimeter;outlineConnect=0;targetShapes=umlLifeline;portConstraint=eastwest;newEdgeStyle={&quot;edgeStyle&quot;:&quot;elbowEdgeStyle&quot;,&quot;elbow&quot;:&quot;vertical&quot;,&quot;curved&quot;:0,&quot;rounded&quot;:0};" parent="7baba1c4bc27f4b0-8" vertex="1">
          <mxGeometry x="50" y="130" width="10" height="30" as="geometry" />
        </mxCell>
        <mxCell id="_VtA3e9hZ6MFnu51Yufp-81" value="GetAtribuicoes()" style="html=1;align=left;spacingLeft=2;endArrow=block;rounded=0;edgeStyle=orthogonalEdgeStyle;curved=0;rounded=0;" parent="7baba1c4bc27f4b0-8" target="_VtA3e9hZ6MFnu51Yufp-80" edge="1">
          <mxGeometry relative="1" as="geometry">
            <mxPoint x="55" y="110" as="sourcePoint" />
            <Array as="points">
              <mxPoint x="85" y="140" />
            </Array>
          </mxGeometry>
        </mxCell>
        <mxCell id="_VtA3e9hZ6MFnu51Yufp-115" value="" style="html=1;points=[];perimeter=orthogonalPerimeter;outlineConnect=0;targetShapes=umlLifeline;portConstraint=eastwest;newEdgeStyle={&quot;edgeStyle&quot;:&quot;elbowEdgeStyle&quot;,&quot;elbow&quot;:&quot;vertical&quot;,&quot;curved&quot;:0,&quot;rounded&quot;:0};" parent="7baba1c4bc27f4b0-8" vertex="1">
          <mxGeometry x="45" y="623" width="10" height="67" as="geometry" />
        </mxCell>
        <mxCell id="_VtA3e9hZ6MFnu51Yufp-116" value="" style="html=1;points=[];perimeter=orthogonalPerimeter;outlineConnect=0;targetShapes=umlLifeline;portConstraint=eastwest;newEdgeStyle={&quot;edgeStyle&quot;:&quot;elbowEdgeStyle&quot;,&quot;elbow&quot;:&quot;vertical&quot;,&quot;curved&quot;:0,&quot;rounded&quot;:0};" parent="7baba1c4bc27f4b0-8" vertex="1">
          <mxGeometry x="50" y="646.5" width="10" height="43.5" as="geometry" />
        </mxCell>
        <mxCell id="_VtA3e9hZ6MFnu51Yufp-117" value="GetAtribuicoes()" style="html=1;align=left;spacingLeft=2;endArrow=block;rounded=0;edgeStyle=orthogonalEdgeStyle;curved=0;rounded=0;" parent="7baba1c4bc27f4b0-8" target="_VtA3e9hZ6MFnu51Yufp-116" edge="1">
          <mxGeometry relative="1" as="geometry">
            <mxPoint x="55" y="626.5" as="sourcePoint" />
            <Array as="points">
              <mxPoint x="85" y="656.5" />
            </Array>
          </mxGeometry>
        </mxCell>
        <mxCell id="_VtA3e9hZ6MFnu51Yufp-119" value="" style="endArrow=block;endFill=1;endSize=12;html=1;rounded=0;exitX=0.9;exitY=0.007;exitDx=0;exitDy=0;exitPerimeter=0;" parent="7baba1c4bc27f4b0-8" edge="1">
          <mxGeometry width="160" relative="1" as="geometry">
            <mxPoint x="60" y="663.44" as="sourcePoint" />
            <mxPoint x="500" y="663.44" as="targetPoint" />
          </mxGeometry>
        </mxCell>
        <mxCell id="_VtA3e9hZ6MFnu51Yufp-120" value="PackadgeAtribuicoes()" style="edgeLabel;html=1;align=center;verticalAlign=middle;resizable=0;points=[];" parent="_VtA3e9hZ6MFnu51Yufp-119" vertex="1" connectable="0">
          <mxGeometry x="-0.15" relative="1" as="geometry">
            <mxPoint as="offset" />
          </mxGeometry>
        </mxCell>
        <mxCell id="_VtA3e9hZ6MFnu51Yufp-121" value="PackadgeAtribuicoes()" style="endArrow=open;endSize=12;dashed=1;html=1;rounded=0;" parent="7baba1c4bc27f4b0-8" edge="1">
          <mxGeometry x="-0.0026" width="160" relative="1" as="geometry">
            <mxPoint x="50" y="686.44" as="sourcePoint" />
            <mxPoint x="-180" y="686.44" as="targetPoint" />
            <mxPoint as="offset" />
          </mxGeometry>
        </mxCell>
        <mxCell id="_VtA3e9hZ6MFnu51Yufp-2" value="" style="shape=umlLifeline;perimeter=lifelinePerimeter;whiteSpace=wrap;html=1;container=1;dropTarget=0;collapsible=0;recursiveResize=0;outlineConnect=0;portConstraint=eastwest;newEdgeStyle={&quot;edgeStyle&quot;:&quot;elbowEdgeStyle&quot;,&quot;elbow&quot;:&quot;vertical&quot;,&quot;curved&quot;:0,&quot;rounded&quot;:0};participant=umlActor;size=40;" parent="1" vertex="1">
          <mxGeometry x="78" y="121" width="22" height="699" as="geometry" />
        </mxCell>
        <mxCell id="_VtA3e9hZ6MFnu51Yufp-55" value="" style="html=1;points=[];perimeter=orthogonalPerimeter;outlineConnect=0;targetShapes=umlLifeline;portConstraint=eastwest;newEdgeStyle={&quot;edgeStyle&quot;:&quot;elbowEdgeStyle&quot;,&quot;elbow&quot;:&quot;vertical&quot;,&quot;curved&quot;:0,&quot;rounded&quot;:0};" parent="_VtA3e9hZ6MFnu51Yufp-2" vertex="1">
          <mxGeometry x="5" y="341" width="10" height="90" as="geometry" />
        </mxCell>
        <mxCell id="_VtA3e9hZ6MFnu51Yufp-86" value="" style="html=1;points=[];perimeter=orthogonalPerimeter;outlineConnect=0;targetShapes=umlLifeline;portConstraint=eastwest;newEdgeStyle={&quot;edgeStyle&quot;:&quot;elbowEdgeStyle&quot;,&quot;elbow&quot;:&quot;vertical&quot;,&quot;curved&quot;:0,&quot;rounded&quot;:0};" parent="_VtA3e9hZ6MFnu51Yufp-2" vertex="1">
          <mxGeometry x="380" y="578" width="10" height="30" as="geometry" />
        </mxCell>
        <mxCell id="_VtA3e9hZ6MFnu51Yufp-87" value="" style="html=1;points=[];perimeter=orthogonalPerimeter;outlineConnect=0;targetShapes=umlLifeline;portConstraint=eastwest;newEdgeStyle={&quot;edgeStyle&quot;:&quot;elbowEdgeStyle&quot;,&quot;elbow&quot;:&quot;vertical&quot;,&quot;curved&quot;:0,&quot;rounded&quot;:0};" parent="_VtA3e9hZ6MFnu51Yufp-2" vertex="1">
          <mxGeometry x="540" y="578" width="10" height="30" as="geometry" />
        </mxCell>
        <mxCell id="_VtA3e9hZ6MFnu51Yufp-88" value="" style="html=1;points=[];perimeter=orthogonalPerimeter;outlineConnect=0;targetShapes=umlLifeline;portConstraint=eastwest;newEdgeStyle={&quot;edgeStyle&quot;:&quot;elbowEdgeStyle&quot;,&quot;elbow&quot;:&quot;vertical&quot;,&quot;curved&quot;:0,&quot;rounded&quot;:0};" parent="_VtA3e9hZ6MFnu51Yufp-2" vertex="1">
          <mxGeometry x="240" y="460" width="10" height="140" as="geometry" />
        </mxCell>
        <mxCell id="_VtA3e9hZ6MFnu51Yufp-89" value="" style="html=1;points=[];perimeter=orthogonalPerimeter;outlineConnect=0;targetShapes=umlLifeline;portConstraint=eastwest;newEdgeStyle={&quot;edgeStyle&quot;:&quot;elbowEdgeStyle&quot;,&quot;elbow&quot;:&quot;vertical&quot;,&quot;curved&quot;:0,&quot;rounded&quot;:0};" parent="_VtA3e9hZ6MFnu51Yufp-2" vertex="1">
          <mxGeometry x="245" y="485" width="10" height="40" as="geometry" />
        </mxCell>
        <mxCell id="_VtA3e9hZ6MFnu51Yufp-90" value="NewAtribuicao()" style="html=1;align=left;spacingLeft=2;endArrow=block;rounded=0;edgeStyle=orthogonalEdgeStyle;curved=0;rounded=0;" parent="_VtA3e9hZ6MFnu51Yufp-2" target="_VtA3e9hZ6MFnu51Yufp-89" edge="1">
          <mxGeometry relative="1" as="geometry">
            <mxPoint x="250" y="465" as="sourcePoint" />
            <Array as="points">
              <mxPoint x="280" y="495" />
            </Array>
          </mxGeometry>
        </mxCell>
        <mxCell id="_VtA3e9hZ6MFnu51Yufp-91" value="" style="html=1;points=[];perimeter=orthogonalPerimeter;outlineConnect=0;targetShapes=umlLifeline;portConstraint=eastwest;newEdgeStyle={&quot;edgeStyle&quot;:&quot;elbowEdgeStyle&quot;,&quot;elbow&quot;:&quot;vertical&quot;,&quot;curved&quot;:0,&quot;rounded&quot;:0};" parent="_VtA3e9hZ6MFnu51Yufp-2" vertex="1">
          <mxGeometry x="245" y="540" width="10" height="60" as="geometry" />
        </mxCell>
        <mxCell id="_VtA3e9hZ6MFnu51Yufp-92" value="SaveAtribuicaoLocal()" style="html=1;align=left;spacingLeft=2;endArrow=block;rounded=0;edgeStyle=orthogonalEdgeStyle;curved=0;rounded=0;" parent="_VtA3e9hZ6MFnu51Yufp-2" target="_VtA3e9hZ6MFnu51Yufp-91" edge="1">
          <mxGeometry relative="1" as="geometry">
            <mxPoint x="255" y="520" as="sourcePoint" />
            <Array as="points">
              <mxPoint x="285" y="550" />
            </Array>
          </mxGeometry>
        </mxCell>
        <mxCell id="_VtA3e9hZ6MFnu51Yufp-93" value="" style="html=1;points=[];perimeter=orthogonalPerimeter;rounded=0;shadow=0;comic=0;labelBackgroundColor=none;strokeWidth=1;fontFamily=Verdana;fontSize=12;align=center;" parent="_VtA3e9hZ6MFnu51Yufp-2" vertex="1">
          <mxGeometry x="5" y="450" width="10" height="150" as="geometry" />
        </mxCell>
        <mxCell id="_VtA3e9hZ6MFnu51Yufp-94" value="" style="endArrow=block;endFill=1;endSize=12;html=1;rounded=0;exitX=1.157;exitY=0.2;exitDx=0;exitDy=0;exitPerimeter=0;" parent="_VtA3e9hZ6MFnu51Yufp-2" edge="1">
          <mxGeometry width="160" relative="1" as="geometry">
            <mxPoint x="16.569999999999936" y="462" as="sourcePoint" />
            <mxPoint x="240" y="462" as="targetPoint" />
          </mxGeometry>
        </mxCell>
        <mxCell id="_VtA3e9hZ6MFnu51Yufp-95" value="Aloca a Turma" style="edgeLabel;html=1;align=center;verticalAlign=middle;resizable=0;points=[];" parent="_VtA3e9hZ6MFnu51Yufp-94" vertex="1" connectable="0">
          <mxGeometry x="-0.15" relative="1" as="geometry">
            <mxPoint x="14" y="-2" as="offset" />
          </mxGeometry>
        </mxCell>
        <mxCell id="_VtA3e9hZ6MFnu51Yufp-96" value="" style="endArrow=block;endFill=1;endSize=12;html=1;rounded=0;exitX=0.9;exitY=0.007;exitDx=0;exitDy=0;exitPerimeter=0;" parent="_VtA3e9hZ6MFnu51Yufp-2" edge="1">
          <mxGeometry width="160" relative="1" as="geometry">
            <mxPoint x="255" y="595" as="sourcePoint" />
            <mxPoint x="380" y="595" as="targetPoint" />
          </mxGeometry>
        </mxCell>
        <mxCell id="_VtA3e9hZ6MFnu51Yufp-97" value="SetAtribuicao()" style="edgeLabel;html=1;align=center;verticalAlign=middle;resizable=0;points=[];" parent="_VtA3e9hZ6MFnu51Yufp-96" vertex="1" connectable="0">
          <mxGeometry x="-0.15" relative="1" as="geometry">
            <mxPoint as="offset" />
          </mxGeometry>
        </mxCell>
        <mxCell id="_VtA3e9hZ6MFnu51Yufp-98" value="" style="endArrow=block;endFill=1;endSize=12;html=1;rounded=0;" parent="_VtA3e9hZ6MFnu51Yufp-2" edge="1">
          <mxGeometry width="160" relative="1" as="geometry">
            <mxPoint x="390" y="589" as="sourcePoint" />
            <mxPoint x="540" y="589" as="targetPoint" />
          </mxGeometry>
        </mxCell>
        <mxCell id="_VtA3e9hZ6MFnu51Yufp-99" value="InsertAtribuicoes()" style="edgeLabel;html=1;align=center;verticalAlign=middle;resizable=0;points=[];" parent="_VtA3e9hZ6MFnu51Yufp-98" vertex="1" connectable="0">
          <mxGeometry x="-0.15" relative="1" as="geometry">
            <mxPoint as="offset" />
          </mxGeometry>
        </mxCell>
        <mxCell id="_VtA3e9hZ6MFnu51Yufp-100" value="SetAtribuicao()" style="endArrow=open;endSize=12;dashed=1;html=1;rounded=0;" parent="_VtA3e9hZ6MFnu51Yufp-2" edge="1">
          <mxGeometry x="-0.0026" width="160" relative="1" as="geometry">
            <mxPoint x="245" y="596" as="sourcePoint" />
            <mxPoint x="15" y="596" as="targetPoint" />
            <mxPoint as="offset" />
          </mxGeometry>
        </mxCell>
        <mxCell id="_VtA3e9hZ6MFnu51Yufp-105" value="" style="html=1;points=[];perimeter=orthogonalPerimeter;outlineConnect=0;targetShapes=umlLifeline;portConstraint=eastwest;newEdgeStyle={&quot;edgeStyle&quot;:&quot;elbowEdgeStyle&quot;,&quot;elbow&quot;:&quot;vertical&quot;,&quot;curved&quot;:0,&quot;rounded&quot;:0};" parent="_VtA3e9hZ6MFnu51Yufp-2" vertex="1">
          <mxGeometry x="7" y="609" width="10" height="71" as="geometry" />
        </mxCell>
        <mxCell id="_VtA3e9hZ6MFnu51Yufp-3" value="" style="html=1;points=[];perimeter=orthogonalPerimeter;rounded=0;shadow=0;comic=0;labelBackgroundColor=none;strokeWidth=1;fontFamily=Verdana;fontSize=12;align=center;" parent="1" vertex="1">
          <mxGeometry x="85" y="291" width="10" height="149" as="geometry" />
        </mxCell>
        <mxCell id="_VtA3e9hZ6MFnu51Yufp-4" value="Planeamento " style="text;html=1;align=center;verticalAlign=middle;resizable=0;points=[];autosize=1;strokeColor=none;fillColor=none;" parent="1" vertex="1">
          <mxGeometry x="40" y="149" width="100" height="30" as="geometry" />
        </mxCell>
        <mxCell id="_VtA3e9hZ6MFnu51Yufp-5" value="" style="endArrow=block;endFill=1;endSize=12;html=1;rounded=0;" parent="1" edge="1">
          <mxGeometry width="160" relative="1" as="geometry">
            <mxPoint x="95" y="226" as="sourcePoint" />
            <mxPoint x="320" y="226" as="targetPoint" />
          </mxGeometry>
        </mxCell>
        <mxCell id="_VtA3e9hZ6MFnu51Yufp-7" value="Pede Visualização Alocações" style="edgeLabel;html=1;align=center;verticalAlign=middle;resizable=0;points=[];" parent="_VtA3e9hZ6MFnu51Yufp-5" vertex="1" connectable="0">
          <mxGeometry x="-0.15" relative="1" as="geometry">
            <mxPoint as="offset" />
          </mxGeometry>
        </mxCell>
        <mxCell id="_VtA3e9hZ6MFnu51Yufp-16" value="GetAtribuicoes()" style="endArrow=open;endSize=12;dashed=1;html=1;rounded=0;" parent="1" edge="1">
          <mxGeometry x="-0.0026" width="160" relative="1" as="geometry">
            <mxPoint x="320" y="266" as="sourcePoint" />
            <mxPoint x="95" y="266" as="targetPoint" />
            <mxPoint as="offset" />
          </mxGeometry>
        </mxCell>
        <mxCell id="_VtA3e9hZ6MFnu51Yufp-17" value="" style="endArrow=block;endFill=1;endSize=12;html=1;rounded=0;exitX=1.157;exitY=0.2;exitDx=0;exitDy=0;exitPerimeter=0;" parent="1" edge="1">
          <mxGeometry width="160" relative="1" as="geometry">
            <mxPoint x="96.56999999999994" y="303" as="sourcePoint" />
            <mxPoint x="320" y="303" as="targetPoint" />
          </mxGeometry>
        </mxCell>
        <mxCell id="_VtA3e9hZ6MFnu51Yufp-18" value="Aloca a Professor" style="edgeLabel;html=1;align=center;verticalAlign=middle;resizable=0;points=[];" parent="_VtA3e9hZ6MFnu51Yufp-17" vertex="1" connectable="0">
          <mxGeometry x="-0.15" relative="1" as="geometry">
            <mxPoint x="14" y="-2" as="offset" />
          </mxGeometry>
        </mxCell>
        <mxCell id="_VtA3e9hZ6MFnu51Yufp-29" value="" style="endArrow=block;endFill=1;endSize=12;html=1;rounded=0;exitX=0.9;exitY=0.007;exitDx=0;exitDy=0;exitPerimeter=0;" parent="1" edge="1">
          <mxGeometry width="160" relative="1" as="geometry">
            <mxPoint x="335" y="435" as="sourcePoint" />
            <mxPoint x="460" y="435" as="targetPoint" />
          </mxGeometry>
        </mxCell>
        <mxCell id="_VtA3e9hZ6MFnu51Yufp-30" value="SetAtribuicao()" style="edgeLabel;html=1;align=center;verticalAlign=middle;resizable=0;points=[];" parent="_VtA3e9hZ6MFnu51Yufp-29" vertex="1" connectable="0">
          <mxGeometry x="-0.15" relative="1" as="geometry">
            <mxPoint as="offset" />
          </mxGeometry>
        </mxCell>
        <mxCell id="_VtA3e9hZ6MFnu51Yufp-32" value="" style="endArrow=block;endFill=1;endSize=12;html=1;rounded=0;" parent="1" edge="1">
          <mxGeometry width="160" relative="1" as="geometry">
            <mxPoint x="470" y="429" as="sourcePoint" />
            <mxPoint x="620" y="429" as="targetPoint" />
          </mxGeometry>
        </mxCell>
        <mxCell id="_VtA3e9hZ6MFnu51Yufp-33" value="InsertAtribuicoes()" style="edgeLabel;html=1;align=center;verticalAlign=middle;resizable=0;points=[];" parent="_VtA3e9hZ6MFnu51Yufp-32" vertex="1" connectable="0">
          <mxGeometry x="-0.15" relative="1" as="geometry">
            <mxPoint as="offset" />
          </mxGeometry>
        </mxCell>
        <mxCell id="_VtA3e9hZ6MFnu51Yufp-35" value="SetAtribuicao()" style="endArrow=open;endSize=12;dashed=1;html=1;rounded=0;" parent="1" edge="1">
          <mxGeometry x="-0.0026" width="160" relative="1" as="geometry">
            <mxPoint x="325" y="436" as="sourcePoint" />
            <mxPoint x="95" y="436" as="targetPoint" />
            <mxPoint as="offset" />
          </mxGeometry>
        </mxCell>
        <mxCell id="_VtA3e9hZ6MFnu51Yufp-38" value="" style="endArrow=block;endFill=1;endSize=12;html=1;rounded=0;" parent="1" edge="1">
          <mxGeometry width="160" relative="1" as="geometry">
            <mxPoint x="96" y="467" as="sourcePoint" />
            <mxPoint x="320" y="467" as="targetPoint" />
          </mxGeometry>
        </mxCell>
        <mxCell id="_VtA3e9hZ6MFnu51Yufp-52" value="Permuta Alocação Professores" style="edgeLabel;html=1;align=center;verticalAlign=middle;resizable=0;points=[];" parent="_VtA3e9hZ6MFnu51Yufp-38" vertex="1" connectable="0">
          <mxGeometry x="0.0987" y="1" relative="1" as="geometry">
            <mxPoint x="-13" as="offset" />
          </mxGeometry>
        </mxCell>
        <mxCell id="_VtA3e9hZ6MFnu51Yufp-54" value="" style="html=1;points=[];perimeter=orthogonalPerimeter;outlineConnect=0;targetShapes=umlLifeline;portConstraint=eastwest;newEdgeStyle={&quot;edgeStyle&quot;:&quot;elbowEdgeStyle&quot;,&quot;elbow&quot;:&quot;vertical&quot;,&quot;curved&quot;:0,&quot;rounded&quot;:0};" parent="1" vertex="1">
          <mxGeometry x="85" y="221" width="10" height="50" as="geometry" />
        </mxCell>
        <mxCell id="_VtA3e9hZ6MFnu51Yufp-76" value="SetAtribuicao()" style="endArrow=open;endSize=12;dashed=1;html=1;rounded=0;" parent="1" edge="1">
          <mxGeometry x="-0.0026" width="160" relative="1" as="geometry">
            <mxPoint x="325" y="531" as="sourcePoint" />
            <mxPoint x="95" y="531" as="targetPoint" />
            <mxPoint as="offset" />
          </mxGeometry>
        </mxCell>
        <mxCell id="_VtA3e9hZ6MFnu51Yufp-79" value="&lt;div&gt;Nota:&lt;/div&gt;Inicio de sistema carrega info da BD para listas de objetos locais." style="shape=note;whiteSpace=wrap;html=1;size=14;verticalAlign=top;align=left;spacingTop=-6;rounded=0;shadow=0;comic=0;labelBackgroundColor=none;strokeWidth=1;fontFamily=Verdana;fontSize=12" parent="1" vertex="1">
          <mxGeometry x="41" y="41" width="174" height="70" as="geometry" />
        </mxCell>
        <mxCell id="_VtA3e9hZ6MFnu51Yufp-84" value="&lt;div style=&quot;font-size: 10px;&quot;&gt;&lt;font style=&quot;font-size: 10px;&quot;&gt;Nota:&lt;/font&gt;&lt;/div&gt;&lt;font style=&quot;font-size: 10px;&quot;&gt;Por Professor OU Turma&lt;/font&gt;" style="shape=note;whiteSpace=wrap;html=1;size=14;verticalAlign=top;align=left;spacingTop=-6;rounded=0;shadow=0;comic=0;labelBackgroundColor=none;strokeWidth=1;fontFamily=Verdana;fontSize=12" parent="1" vertex="1">
          <mxGeometry x="332" y="165" width="97" height="50" as="geometry" />
        </mxCell>
        <mxCell id="_VtA3e9hZ6MFnu51Yufp-85" value="&lt;div style=&quot;font-size: 10px;&quot;&gt;&lt;font style=&quot;font-size: 10px;&quot;&gt;Nota:&lt;/font&gt;&lt;/div&gt;&lt;div style=&quot;font-size: 10px;&quot;&gt;&lt;font style=&quot;font-size: 10px;&quot;&gt;Atribuição é obj():&lt;/font&gt;&lt;/div&gt;&lt;div style=&quot;font-size: 10px;&quot;&gt;&lt;font style=&quot;font-size: 10px;&quot;&gt;_id;&lt;br&gt;&lt;/font&gt;&lt;/div&gt;&lt;div style=&quot;font-size: 10px;&quot;&gt;&lt;font style=&quot;font-size: 10px;&quot;&gt;_idDisponibilidadeTipo;&lt;br&gt;&lt;/font&gt;&lt;/div&gt;&lt;div style=&quot;font-size: 10px;&quot;&gt;&lt;font style=&quot;font-size: 10px;&quot;&gt;_idUfcd;&lt;/font&gt;&lt;/div&gt;&lt;div style=&quot;font-size: 10px;&quot;&gt;&lt;font style=&quot;font-size: 10px;&quot;&gt;_idHorario;&lt;/font&gt;&lt;/div&gt;&lt;div style=&quot;font-size: 10px;&quot;&gt;&lt;font style=&quot;font-size: 10px;&quot;&gt;_dia;&lt;br&gt;&lt;/font&gt;&lt;/div&gt;&lt;div style=&quot;font-size: 10px;&quot;&gt;&lt;font style=&quot;font-size: 10px;&quot;&gt;_idFormador;&lt;/font&gt;&lt;/div&gt;&lt;div style=&quot;font-size: 10px;&quot;&gt;&lt;font style=&quot;font-size: 10px;&quot;&gt;_idTurma.&lt;font style=&quot;font-size: 10px;&quot;&gt;&lt;br&gt;&lt;/font&gt;&lt;/font&gt;&lt;/div&gt;" style="shape=note;whiteSpace=wrap;html=1;size=14;verticalAlign=top;align=left;spacingTop=-6;rounded=0;shadow=0;comic=0;labelBackgroundColor=none;strokeWidth=1;fontFamily=Verdana;fontSize=12" parent="1" vertex="1">
          <mxGeometry x="101" y="311" width="129" height="109" as="geometry" />
        </mxCell>
        <mxCell id="_VtA3e9hZ6MFnu51Yufp-106" value=":PublicaHorarios" style="shape=umlLifeline;perimeter=lifelinePerimeter;whiteSpace=wrap;html=1;container=1;collapsible=0;recursiveResize=0;outlineConnect=0;rounded=1;shadow=0;comic=0;labelBackgroundColor=none;strokeWidth=1;fontFamily=Verdana;fontSize=12;align=center;" parent="1" vertex="1">
          <mxGeometry x="720" y="110" width="120" height="710" as="geometry" />
        </mxCell>
        <mxCell id="_VtA3e9hZ6MFnu51Yufp-118" value="" style="html=1;points=[];perimeter=orthogonalPerimeter;outlineConnect=0;targetShapes=umlLifeline;portConstraint=eastwest;newEdgeStyle={&quot;edgeStyle&quot;:&quot;elbowEdgeStyle&quot;,&quot;elbow&quot;:&quot;vertical&quot;,&quot;curved&quot;:0,&quot;rounded&quot;:0};" parent="_VtA3e9hZ6MFnu51Yufp-106" vertex="1">
          <mxGeometry x="55" y="657.5" width="10" height="32.5" as="geometry" />
        </mxCell>
        <mxCell id="_VtA3e9hZ6MFnu51Yufp-113" value="" style="endArrow=block;endFill=1;endSize=12;html=1;rounded=0;exitX=1.157;exitY=0.2;exitDx=0;exitDy=0;exitPerimeter=0;" parent="1" edge="1">
          <mxGeometry width="160" relative="1" as="geometry">
            <mxPoint x="94.99999999999994" y="740" as="sourcePoint" />
            <mxPoint x="318.43" y="740" as="targetPoint" />
          </mxGeometry>
        </mxCell>
        <mxCell id="_VtA3e9hZ6MFnu51Yufp-114" value="Publica horários" style="edgeLabel;html=1;align=center;verticalAlign=middle;resizable=0;points=[];" parent="_VtA3e9hZ6MFnu51Yufp-113" vertex="1" connectable="0">
          <mxGeometry x="-0.15" relative="1" as="geometry">
            <mxPoint x="14" y="-2" as="offset" />
          </mxGeometry>
        </mxCell>
        <mxCell id="_VtA3e9hZ6MFnu51Yufp-141" value="&lt;div&gt;&lt;br&gt;&lt;/div&gt;&lt;div&gt;&lt;br&gt;&lt;/div&gt;&lt;div&gt;&lt;br&gt;&lt;/div&gt;&lt;div&gt;Formador&lt;/div&gt;" style="shape=umlLifeline;perimeter=lifelinePerimeter;whiteSpace=wrap;html=1;container=1;dropTarget=0;collapsible=0;recursiveResize=0;outlineConnect=0;portConstraint=eastwest;newEdgeStyle={&quot;edgeStyle&quot;:&quot;elbowEdgeStyle&quot;,&quot;elbow&quot;:&quot;vertical&quot;,&quot;curved&quot;:0,&quot;rounded&quot;:0};participant=umlActor;" parent="1" vertex="1">
          <mxGeometry x="910" y="111" width="20" height="709" as="geometry" />
        </mxCell>
        <mxCell id="_VtA3e9hZ6MFnu51Yufp-143" value="" style="html=1;points=[];perimeter=orthogonalPerimeter;outlineConnect=0;targetShapes=umlLifeline;portConstraint=eastwest;newEdgeStyle={&quot;edgeStyle&quot;:&quot;elbowEdgeStyle&quot;,&quot;elbow&quot;:&quot;vertical&quot;,&quot;curved&quot;:0,&quot;rounded&quot;:0};" parent="_VtA3e9hZ6MFnu51Yufp-141" vertex="1">
          <mxGeometry x="5" y="656" width="10" height="32.5" as="geometry" />
        </mxCell>
        <mxCell id="_VtA3e9hZ6MFnu51Yufp-147" value="" style="endArrow=block;endFill=1;endSize=12;html=1;rounded=0;" parent="1" edge="1">
          <mxGeometry width="160" relative="1" as="geometry">
            <mxPoint x="784.9999999999998" y="781.75" as="sourcePoint" />
            <mxPoint x="914.9999999999998" y="781.75" as="targetPoint" />
          </mxGeometry>
        </mxCell>
        <mxCell id="_VtA3e9hZ6MFnu51Yufp-148" value="SendAtribuicoes()" style="edgeLabel;html=1;align=center;verticalAlign=middle;resizable=0;points=[];" parent="_VtA3e9hZ6MFnu51Yufp-147" vertex="1" connectable="0">
          <mxGeometry x="-0.15" relative="1" as="geometry">
            <mxPoint as="offset" />
          </mxGeometry>
        </mxCell>
        <mxCell id="_VtA3e9hZ6MFnu51Yufp-150" value="" style="endArrow=block;dashed=1;endFill=0;endSize=12;html=1;rounded=0;" parent="1" edge="1">
          <mxGeometry width="160" relative="1" as="geometry">
            <mxPoint x="775" y="796.75" as="sourcePoint" />
            <mxPoint x="335" y="796.75" as="targetPoint" />
          </mxGeometry>
        </mxCell>
        <mxCell id="_VtA3e9hZ6MFnu51Yufp-152" value="SendAtribuicoes()" style="edgeLabel;html=1;align=center;verticalAlign=middle;resizable=0;points=[];" parent="_VtA3e9hZ6MFnu51Yufp-150" vertex="1" connectable="0">
          <mxGeometry x="0.1338" y="1" relative="1" as="geometry">
            <mxPoint as="offset" />
          </mxGeometry>
        </mxCell>
        <mxCell id="_VtA3e9hZ6MFnu51Yufp-153" value="&lt;div style=&quot;font-size: 10px;&quot;&gt;&lt;font style=&quot;font-size: 10px;&quot;&gt;Nota:&lt;/font&gt;&lt;/div&gt;&lt;div style=&quot;font-size: 10px;&quot;&gt;&lt;font style=&quot;font-size: 10px;&quot;&gt;Atribuição é obj():&lt;/font&gt;&lt;/div&gt;&lt;div style=&quot;font-size: 10px;&quot;&gt;&lt;font style=&quot;font-size: 10px;&quot;&gt;_id;&lt;br&gt;&lt;/font&gt;&lt;/div&gt;&lt;div style=&quot;font-size: 10px;&quot;&gt;&lt;font style=&quot;font-size: 10px;&quot;&gt;_idDisponibilidade;&lt;br&gt;&lt;/font&gt;&lt;/div&gt;&lt;div style=&quot;font-size: 10px;&quot;&gt;&lt;font style=&quot;font-size: 10px;&quot;&gt;_idUfcd;&lt;/font&gt;&lt;/div&gt;&lt;div style=&quot;font-size: 10px;&quot;&gt;&lt;font style=&quot;font-size: 10px;&quot;&gt;_idHorario;&lt;/font&gt;&lt;/div&gt;&lt;div style=&quot;font-size: 10px;&quot;&gt;&lt;font style=&quot;font-size: 10px;&quot;&gt;_dia;&lt;br&gt;&lt;/font&gt;&lt;/div&gt;&lt;div style=&quot;font-size: 10px;&quot;&gt;&lt;font style=&quot;font-size: 10px;&quot;&gt;_idFormador;&lt;/font&gt;&lt;/div&gt;&lt;div style=&quot;font-size: 10px;&quot;&gt;&lt;font style=&quot;font-size: 10px;&quot;&gt;_idTurma.&lt;font style=&quot;font-size: 10px;&quot;&gt;&lt;br&gt;&lt;/font&gt;&lt;/font&gt;&lt;/div&gt;" style="shape=note;whiteSpace=wrap;html=1;size=14;verticalAlign=top;align=left;spacingTop=-6;rounded=0;shadow=0;comic=0;labelBackgroundColor=none;strokeWidth=1;fontFamily=Verdana;fontSize=12" parent="1" vertex="1">
          <mxGeometry x="101" y="590" width="129" height="109" as="geometry" />
        </mxCell>
      </root>
    </mxGraphModel>
  </diagram>
</mxfile>
